<?xml version="1.0" encoding="iso-8859-1"?>
<!-- Generator: Adobe Illustrator 19.0.0, SVG Export Plug-In . SVG Version: 6.00 Build 0)  -->
<svg version="1.1" id="Layer_1" xmlns="http://www.w3.org/2000/svg" xmlns:xlink="http://www.w3.org/1999/xlink" x="0px" y="0px"
	 viewBox="0 0 512 512" style="enable-background:new 0 0 512 512;" xml:space="preserve">
<g>
	<g>
		<path d="M256,133.565c-67.51,0-122.435,54.934-122.435,122.435S188.489,378.435,256,378.435
			c67.511,0,122.435-54.934,122.435-122.435S323.511,133.565,256,133.565z M256,345.043c-49.097,0-89.043-39.946-89.043-89.043
			s39.946-89.043,89.043-89.043s89.043,39.946,89.043,89.043S305.097,345.043,256,345.043z"/>
	</g>
</g>
<g>
	<g>
		<path d="M256,200.348c-30.736,0-55.652,24.917-55.652,55.652s24.917,55.652,55.652,55.652s55.652-24.917,55.652-55.652
			S286.736,200.348,256,200.348z M272.696,256c-9.208,0-16.696-7.492-16.696-16.696c0-9.204,7.487-16.696,16.696-16.696
			c9.208,0,16.696,7.492,16.696,16.696C289.391,248.508,281.904,256,272.696,256z"/>
	</g>
</g>
<g>
	<g>
		<path d="M322.783,411.826H200.348c-9.223,0-16.696,7.473-16.696,16.696c0,9.223,7.473,16.696,16.696,16.696h122.435
			c9.223,0,16.696-7.473,16.696-16.696C339.478,419.299,332.005,411.826,322.783,411.826z"/>
	</g>
</g>
<g>
	<g>
		<path d="M418.265,117.344l22.177-22.179c6.53,3.119,13.753,5.009,21.471,5.009c27.662,0,50.087-22.424,50.087-50.087
			S489.576,0,461.913,0s-50.087,22.424-50.087,50.087c0,7.718,1.89,14.94,5.009,21.471L389.092,99.3
			C350.286,78.679,304.711,66.783,256,66.783S161.714,78.679,122.909,99.3L95.165,71.558c3.119-6.53,5.009-13.753,5.009-21.471
			C100.174,22.424,77.749,0,50.087,0S0,22.424,0,50.087s22.424,50.087,50.087,50.087c7.718,0,14.94-1.89,21.471-5.009l22.177,22.177
			C36.543,158.204,0,220.156,0,289.391C0,412.135,114.843,512,256,512s256-99.865,256-222.609
			C512,220.156,475.457,158.204,418.265,117.344z M461.913,33.391c9.206,0,16.696,7.49,16.696,16.696s-7.49,16.696-16.696,16.696
			s-16.696-7.49-16.696-16.696S452.707,33.391,461.913,33.391z M50.087,66.783c-9.206,0-16.696-7.49-16.696-16.696
			s7.49-16.696,16.696-16.696s16.696,7.49,16.696,16.696S59.293,66.783,50.087,66.783z M256,478.609
			c-122.744,0-222.609-84.881-222.609-189.217S133.256,100.174,256,100.174s222.609,84.881,222.609,189.217
			S378.744,478.609,256,478.609z"/>
	</g>
</g>
<g>
</g>
<g>
</g>
<g>
</g>
<g>
</g>
<g>
</g>
<g>
</g>
<g>
</g>
<g>
</g>
<g>
</g>
<g>
</g>
<g>
</g>
<g>
</g>
<g>
</g>
<g>
</g>
<g>
</g>
</svg>
